<?xml version="1.0" standalone="no"?>
<!DOCTYPE svg PUBLIC "-//W3C//DTD SVG 20010904//EN"
 "http://www.w3.org/TR/2001/REC-SVG-20010904/DTD/svg10.dtd">
<svg version="1.0" xmlns="http://www.w3.org/2000/svg"
 width="2000.000000pt" height="2000.000000pt" viewBox="0 0 2000.000000 2000.000000"
 preserveAspectRatio="xMidYMid meet">

<g transform="translate(0.000000,2000.000000) scale(0.100000,-0.100000)"
fill="#000000" stroke="none">
<path d="M6133 13440 c-38 -23 -60 -55 -69 -98 -7 -36 -9 -37 -44 -17 -33 19
-104 19 -141 0 -62 -33 -89 -128 -54 -195 14 -28 14 -29 -15 -35 -123 -27
-149 -197 -40 -263 27 -17 28 -20 13 -34 -17 -18 -31 -118 -17 -118 5 0 15 9
22 21 18 28 74 50 111 43 16 -4 46 -22 65 -41 l34 -34 6 29 c4 15 2 40 -3 54
-10 25 -7 28 67 66 182 94 441 141 545 97 47 -19 50 -19 42 5 -6 18 -2 20 37
20 116 0 186 136 116 225 -33 42 -75 58 -138 52 l-56 -5 4 34 c9 73 -33 136
-100 154 -52 14 -92 5 -133 -31 l-33 -29 -19 37 c-37 76 -130 106 -200 63z
m474 -416 c11 -3 24 -15 26 -26 5 -17 2 -19 -19 -14 -76 19 -216 14 -280 -11
-18 -7 -18 -6 -3 17 9 14 27 28 40 31 30 9 207 11 236 3z m-418 -77 c9 -11
-16 -28 -127 -83 -75 -38 -140 -70 -144 -72 -17 -7 -7 26 12 43 19 17 227 125
241 125 4 0 12 -6 18 -13z"/>
<path d="M12030 13120 c-100 -36 -222 -132 -296 -232 l-42 -58 15 -57 c31
-121 96 -256 167 -349 31 -41 34 -50 24 -65 -7 -10 -48 -67 -90 -128 -142
-199 -194 -324 -153 -364 14 -15 19 -15 44 -3 31 17 83 91 135 195 29 56 34
76 26 91 -17 32 -12 99 11 131 26 37 85 56 130 40 17 -6 74 -11 125 -11 l94 0
0 156 c0 92 4 164 11 175 10 20 17 20 162 14 150 -7 369 7 392 24 5 5 27 14
48 21 63 20 97 55 97 101 0 78 -57 99 -144 53 -26 -14 -50 -23 -52 -21 -3 3 0
25 7 50 30 121 -90 167 -148 56 -13 -24 -27 -45 -31 -46 -4 -2 -20 18 -37 43
-32 48 -94 105 -161 147 -93 58 -232 73 -334 37z"/>
<path d="M7994 12745 c-76 -107 -141 -195 -145 -195 -4 0 -105 59 -225 130
l-217 131 7 -57 c8 -66 47 -144 89 -180 17 -14 53 -37 81 -51 l50 -26 -55 -26
c-117 -56 -170 -121 -205 -251 -23 -89 -22 -251 5 -425 25 -167 27 -336 6
-420 -9 -33 -39 -109 -67 -168 -65 -139 -64 -168 10 -317 34 -67 55 -123 58
-155 8 -70 -17 -177 -72 -308 -97 -235 -124 -324 -124 -418 0 -101 14 -149 69
-229 61 -89 81 -136 90 -208 11 -96 -7 -160 -94 -335 -81 -160 -93 -216 -59
-266 19 -27 24 -26 149 23 l90 35 -3 58 c-3 43 3 76 22 128 13 39 42 117 62
175 35 97 38 113 39 215 0 99 -3 116 -27 168 -24 51 -25 56 -8 47 30 -16 70
-75 86 -127 22 -70 20 -208 -6 -367 -20 -125 -23 -226 -7 -243 4 -3 54 5 112
17 87 20 104 27 99 39 -32 78 -29 162 10 293 13 46 28 101 33 123 l9 40 18
-74 c15 -58 17 -90 11 -155 -10 -107 -8 -164 6 -200 l13 -29 88 7 87 6 -5 -33
c-14 -85 -29 -128 -85 -238 -115 -230 -160 -380 -178 -589 -26 -307 52 -785
245 -1503 43 -161 46 -187 22 -187 -20 0 -133 -62 -188 -103 -125 -95 -370
-352 -580 -609 -30 -37 -56 -64 -57 -60 -1 4 -14 140 -28 302 -71 825 -95 979
-236 1543 -69 275 -405 1502 -445 1625 -4 9 6 2 21 -15 l26 -33 102 55 c56 30
103 60 105 67 4 22 -62 143 -80 146 -14 3 -72 -18 -155 -55 -10 -4 -9 5 2 37
31 87 125 460 159 630 80 397 122 808 112 1095 -5 170 -26 387 -41 435 -4 12
-39 29 -108 53 -138 49 -285 90 -296 83 -4 -3 -11 -23 -15 -43 -3 -21 -16 -50
-28 -65 l-23 -27 -115 48 c-63 26 -180 71 -260 100 -80 29 -152 59 -160 66 -8
7 -40 15 -70 19 -30 3 -100 12 -155 20 -75 11 -113 11 -150 4 -47 -10 -48 -12
-25 -21 82 -31 102 -43 143 -86 25 -25 81 -107 125 -181 120 -203 285 -430
475 -653 l66 -77 143 189 c79 105 148 190 155 191 7 0 19 12 26 26 13 24 10
33 -30 111 -48 93 -51 119 -24 179 38 85 136 116 220 72 55 -29 82 -64 91
-120 8 -55 -10 -166 -33 -201 -9 -15 -23 -54 -31 -87 l-14 -60 24 -6 c13 -3
24 -12 24 -19 0 -26 -73 -221 -112 -299 -58 -117 -118 -204 -185 -268 -69 -65
-123 -95 -199 -109 -48 -9 -66 -7 -127 11 -301 91 -756 488 -969 847 -111 188
-115 320 -11 444 l28 33 -49 -34 c-78 -55 -166 -140 -186 -181 -28 -55 -41
-150 -50 -384 -5 -115 -12 -221 -15 -235 -21 -78 -27 -90 -46 -90 -31 0 -88
-33 -161 -94 -163 -135 -264 -355 -284 -620 -7 -82 -6 -84 19 -101 14 -9 30
-14 35 -11 6 3 7 -51 5 -132 -6 -159 9 -247 57 -350 41 -88 161 -207 251 -250
69 -33 179 -62 235 -62 23 0 34 -5 34 -14 0 -8 -36 -149 -81 -313 -304 -1124
-498 -1744 -574 -1835 -75 -90 -180 -123 -360 -115 -191 8 -403 61 -701 173
-80 30 -147 54 -148 54 -2 0 -49 -67 -104 -148 l-100 -148 116 -76 c728 -475
1365 -704 1626 -585 151 70 319 306 555 781 60 122 148 309 194 416 72 167
272 669 334 839 16 43 21 50 27 35 67 -169 327 -948 431 -1294 75 -249 135
-503 155 -663 11 -83 35 -228 54 -322 32 -160 177 -751 210 -860 9 -27 16 -55
16 -60 0 -6 -35 -40 -77 -75 -43 -36 -87 -75 -99 -87 -18 -20 -31 -23 -96 -23
-60 0 -80 -4 -101 -20 -44 -35 -44 -70 2 -167 23 -47 41 -87 41 -89 0 -2
-1426 -4 -3170 -4 l-3170 0 0 -2345 0 -2345 10000 0 10000 0 0 2345 0 2345
-2296 0 c-2181 0 -2295 1 -2290 18 44 140 190 803 265 1204 104 551 127 777
117 1188 -11 515 -81 1498 -162 2290 -9 85 -14 179 -12 209 l5 54 -136 -9
c-75 -5 -244 -9 -376 -9 -263 1 -376 17 -488 68 -60 27 -131 87 -152 126 -33
64 -75 322 -84 516 l-6 129 -44 11 c-25 6 -46 15 -48 20 -1 6 -6 69 -11 140
-9 146 0 330 18 364 41 77 227 63 366 -27 49 -32 64 -49 81 -88 29 -66 43
-179 43 -335 l0 -130 -45 7 -45 6 0 -127 c0 -113 13 -280 26 -343 3 -16 19
-30 47 -42 45 -20 209 -65 267 -73 19 -2 97 -15 173 -28 l137 -24 93 48 c50
26 101 47 111 47 11 0 62 -8 114 -17 102 -18 95 -11 76 -80 -6 -23 -6 -23 119
-23 l126 0 3 58 3 57 357 -1 358 0 -194 196 c-180 182 -197 203 -234 281 -36
76 -40 92 -41 168 -1 47 -6 91 -12 98 -22 26 -85 35 -212 32 -95 -3 -130 -8
-141 -19 -11 -11 -16 -43 -19 -111 -3 -76 -9 -107 -29 -150 -24 -52 -97 -159
-108 -159 -8 0 1 73 10 85 22 29 33 140 36 385 3 275 -1 320 -36 358 -24 26
-13 28 35 8 l35 -15 -14 27 c-8 15 -39 55 -70 89 l-56 62 25 36 c33 49 39 91
25 161 -12 60 -51 147 -70 159 -18 11 -11 34 25 81 46 60 48 119 7 185 -29 45
-95 109 -112 109 -17 0 -11 25 20 81 65 118 26 208 -117 273 -40 18 -41 19
-45 77 -3 47 -10 65 -30 86 -34 33 -95 40 -177 19 -85 -22 -88 -21 -110 23
-21 41 -37 51 -77 51 -44 0 -90 -27 -163 -96 l-72 -67 -109 -3 c-177 -5 -277
-52 -303 -142 -12 -40 -12 -54 0 -97 28 -97 30 -89 -31 -108 -113 -36 -192
-127 -183 -213 5 -46 59 -164 88 -190 29 -27 22 -46 -33 -88 -28 -22 -69 -65
-92 -96 -79 -107 -85 -185 -18 -250 21 -19 45 -39 55 -45 17 -9 17 -14 -7 -77
-37 -99 -51 -184 -37 -235 12 -45 60 -93 92 -93 25 0 24 -12 -2 -36 -12 -10
-33 -39 -47 -63 -30 -51 -33 -108 -18 -342 10 -155 4 -209 -23 -209 -22 0
-140 -107 -161 -145 -14 -27 -15 -27 -20 -5 -5 20 -10 16 -48 -38 -54 -77
-113 -100 -189 -71 -35 13 -97 72 -125 119 -12 19 -52 67 -90 106 -90 95 -91
113 -11 231 31 46 66 91 77 99 l21 14 -23 83 c-13 45 -34 141 -47 212 -30 166
-49 247 -76 326 -28 82 -90 204 -128 250 -42 51 -166 133 -268 179 -90 40
-257 82 -309 78 -16 -1 -47 -1 -68 0 l-39 2 6 50 6 49 -44 -5 c-60 -9 -175 19
-267 65 l-77 38 26 -34 c37 -48 149 -130 211 -153 29 -11 72 -20 95 -20 40 0
44 -3 55 -34 9 -25 27 -42 66 -64 83 -47 140 -153 117 -214 -15 -39 -66 -52
-175 -44 -152 10 -324 56 -451 118 -88 44 -119 71 -154 132 -16 30 -44 70 -61
89 -37 42 -37 53 -3 89 14 15 24 31 20 35 -4 3 -211 7 -459 7 -398 1 -462 -1
-528 -16 -93 -22 -216 -81 -297 -142 -86 -65 -247 -238 -274 -294 -31 -64 -37
-254 -15 -448 31 -272 32 -350 5 -449 -26 -99 -56 -150 -170 -285 -118 -139
-163 -215 -182 -306 -51 -238 -47 -684 8 -966 61 -307 340 -545 664 -567 l94
-6 -2 -130 c-3 -209 22 -491 99 -1090 27 -209 54 -426 60 -481 l11 -102 -65
-338 c-58 -303 -194 -1075 -227 -1291 -11 -71 -15 -82 -33 -85 -17 -2 -25 -18
-43 -83 -32 -119 -31 -131 15 -146 20 -6 42 -15 47 -19 11 -9 499 -170 514
-170 12 0 121 192 121 213 0 9 -6 17 -12 20 -15 5 -16 3 137 272 125 220 341
638 415 805 84 186 176 427 215 560 20 69 62 250 93 402 31 153 60 278 63 278
4 0 9 -8 12 -17 3 -10 39 -111 81 -224 103 -281 133 -390 146 -533 22 -245 57
-464 121 -751 46 -206 141 -573 199 -767 39 -130 40 -139 8 -150 -7 -3 44
-186 57 -208 9 -14 552 19 620 38 29 8 30 11 36 78 4 38 7 95 8 127 1 52 -1
57 -20 57 -20 0 -21 3 -15 98 8 134 25 647 35 1065 4 191 10 349 12 352 3 2
72 18 154 36 587 124 960 343 1119 657 44 86 118 419 210 941 42 236 56 296
56 243 0 -12 14 -155 30 -319 79 -773 80 -1045 5 -1858 -33 -365 -77 -757
-120 -1077 -19 -141 -35 -259 -35 -262 0 -3 -14 -6 -31 -6 l-32 0 7 -52 c3
-29 6 -61 6 -70 0 -16 14 -18 163 -18 l164 0 -26 -150 -26 -150 -142 0 c-164
0 -144 15 -163 -125 -6 -44 -13 -91 -15 -105 -10 -54 -16 -53 381 -53 401 -1
410 1 421 54 7 36 -15 35 343 9 1081 -79 1689 -174 1741 -272 139 -259 -3326
-468 -7751 -468 -4425 0 -7890 209 -7751 468 65 122 997 239 2566 322 608 32
1421 63 2007 76 l287 7 5 -24 c3 -13 13 -53 20 -88 25 -107 21 -107 203 -18
87 42 253 117 368 166 224 97 265 124 265 180 0 48 -18 54 -102 37 -126 -26
-233 -37 -332 -35 -53 1 -96 5 -96 9 0 3 14 19 30 35 23 22 33 26 42 17 9 -9
7 -16 -7 -32 -10 -11 -13 -20 -7 -20 16 0 33 36 26 54 -8 20 -18 20 -49 0 -25
-16 -25 -16 -25 15 0 24 -4 31 -20 31 -24 0 -41 -30 -38 -69 3 -30 1 -32 -139
-95 l-142 -64 -44 132 c-44 132 -44 132 -21 134 12 1 80 23 151 49 181 68 170
30 138 469 -13 192 -26 368 -27 392 l-3 43 140 91 c211 138 496 342 645 462
391 316 572 536 616 749 17 79 53 409 55 497 2 121 9 113 112 -134 l98 -234
-11 -63 c-24 -148 -6 -417 41 -629 87 -393 236 -794 462 -1245 71 -143 194
-376 235 -447 14 -24 14 -28 -1 -43 -10 -9 -17 -19 -17 -23 1 -4 26 -56 58
-117 52 -100 60 -110 85 -110 15 1 27 -2 28 -5 0 -3 4 -56 8 -118 6 -96 10
-116 29 -134 l21 -22 118 36 c65 20 194 55 288 77 182 44 211 57 221 97 11 43
-19 64 -91 64 -80 0 -139 18 -208 64 -49 33 -55 40 -45 56 10 15 4 34 -30 108
-23 50 -42 95 -42 100 0 6 -10 23 -23 39 -67 81 -362 1296 -486 1998 -55 316
-54 308 -111 785 -58 489 -157 1270 -234 1838 -51 387 -52 393 -34 420 11 15
32 52 48 83 l29 57 -28 43 c-88 140 -114 201 -119 275 l-5 72 40 -5 c61 -8
147 21 196 66 23 21 60 48 83 59 22 11 46 28 53 36 12 14 47 16 252 16 153 0
239 4 239 10 0 6 -130 10 -370 10 l-370 0 0 30 c0 45 -20 132 -37 158 -8 13
-24 27 -36 32 -13 5 144 9 396 9 268 1 417 5 417 11 0 6 -162 11 -452 13
l-453 2 498 3 c320 1 497 6 497 12 0 6 -197 11 -557 12 l-556 3 -20 38 c-25
49 -26 126 0 169 l19 33 554 5 c430 4 554 8 558 18 3 9 -145 12 -720 12 l-723
0 -24 37 c-29 45 -37 108 -21 159 24 74 23 74 210 74 92 0 169 3 173 6 3 4 -4
19 -15 35 -15 19 -23 49 -26 89 -4 51 -1 66 22 105 l27 45 -175 0 -175 0 -27
55 c-31 64 -29 124 7 181 21 34 21 34 100 34 43 0 79 2 79 5 0 2 -27 105 -61
227 -95 351 -157 498 -276 659 -80 110 -146 169 -245 219 -67 33 -103 44 -215
66 -21 4 -18 9 35 62 67 67 100 128 108 198 6 50 -10 134 -26 134 -4 0 -70
-88 -146 -195z m7386 -587 c11 -18 20 -36 20 -39 0 -3 -20 -5 -45 -5 -52 1
-61 -16 -10 -19 19 -1 38 -4 41 -7 3 -3 -4 -21 -15 -39 -12 -19 -21 -41 -21
-49 0 -8 -15 -20 -34 -26 -31 -9 -36 -8 -46 11 -27 50 -103 69 -160 40 -32
-16 -60 -61 -60 -94 0 -27 -6 -29 -115 -50 -87 -16 -95 -17 -89 -2 19 44 35
141 30 177 l-5 41 127 31 c154 38 264 58 330 61 26 1 36 -5 52 -31z m46 -100
c4 -6 2 -14 -5 -16 -8 -3 -22 -13 -32 -23 -23 -23 -26 -3 -3 29 17 25 29 28
40 10z m-211 -42 c106 -45 69 -206 -47 -206 -52 0 -108 51 -108 99 0 46 26 90
63 106 41 18 50 18 92 1z m240 -67 c9 -44 14 -83 11 -86 -3 -3 -18 0 -34 6
-34 14 -62 59 -61 98 0 27 1 27 10 5 12 -31 34 -23 36 14 2 43 2 44 12 44 4 0
16 -36 26 -81z m-89 -30 c17 -40 51 -69 83 -69 39 0 39 -155 0 -246 -39 -91
-138 -167 -234 -181 -53 -7 -60 -22 -53 -109 8 -94 66 -148 173 -159 56 -6 69
-12 93 -40 37 -41 68 -109 77 -164 l7 -44 -23 17 c-42 29 -118 15 -171 -31
-15 -13 -26 -12 -99 6 -134 34 -237 25 -291 -26 -23 -22 -30 -24 -43 -13 -8 7
-15 18 -15 24 0 25 -61 137 -95 175 -53 58 -46 83 24 96 51 10 56 13 78 55 26
50 48 190 41 255 -6 53 -79 150 -122 160 -15 4 -46 25 -67 46 -32 32 -39 46
-39 77 0 55 35 87 89 79 27 -3 41 -1 45 8 2 7 45 20 98 29 51 10 100 19 109
22 11 3 20 -5 29 -26 15 -35 66 -70 105 -70 68 0 125 56 125 124 0 22 6 38 17
44 25 15 43 3 59 -39z m-9196 -287 c28 -10 38 -18 27 -20 -24 -5 -83 16 -99
35 -11 15 -11 16 7 9 11 -5 40 -15 65 -24z m2387 -520 c40 -22 64 -74 57 -124
l-6 -46 -54 27 c-45 22 -53 30 -53 55 -1 18 -13 40 -36 63 -19 19 -35 36 -35
38 0 16 89 7 127 -13z m-478 -37 c149 -38 321 -99 321 -115 0 -4 -11 -12 -25
-18 -33 -15 -62 -64 -76 -129 -7 -29 -14 -53 -16 -53 -1 0 -45 23 -95 51 -113
63 -224 138 -263 179 l-29 31 44 39 c25 21 52 37 60 35 8 -2 44 -11 79 -20z
m-323 -140 c120 -70 235 -284 310 -575 13 -52 24 -98 24 -102 0 -4 -17 -12
-37 -17 -120 -32 -328 -43 -399 -21 l-41 12 -21 97 c-52 235 -55 375 -9 474
22 48 109 157 125 157 3 0 24 -11 48 -25z m4459 -525 c14 -13 47 -57 75 -100
72 -110 70 -131 -18 -224 -38 -39 -78 -87 -90 -107 -34 -56 -105 -117 -146
-124 -51 -10 -105 2 -130 29 -51 56 -98 136 -98 169 0 44 91 226 135 269 18
18 62 53 98 76 57 39 69 43 107 39 26 -3 53 -14 67 -27z m1659 -645 c-14 -60
-19 -230 -8 -259 3 -9 14 -16 25 -16 20 0 20 -1 38 -155 14 -116 51 -193 126
-264 84 -80 148 -105 273 -109 l104 -4 -6 -46 c-11 -87 -36 -455 -61 -897 -27
-478 -46 -713 -75 -903 -17 -117 -20 -125 -60 -177 -85 -110 -226 -231 -406
-348 -92 -60 -283 -162 -289 -155 -1 2 -7 217 -14 478 -6 261 -18 662 -27 890
l-16 414 32 26 c29 23 34 36 51 126 51 274 79 690 69 1029 -5 145 -3 172 10
183 8 6 39 31 67 53 29 23 81 77 115 120 34 44 63 78 64 76 1 -1 -4 -29 -12
-62z m-7401 -392 c-7 -2 -19 -2 -25 0 -7 3 -2 5 12 5 14 0 19 -2 13 -5z m6611
-3309 c21 -63 36 -117 34 -119 -2 -2 -57 -15 -123 -27 l-120 -24 -6 29 c-4 15
-8 72 -10 125 l-4 97 85 16 c47 10 90 18 95 18 6 1 28 -51 49 -115z m-6230
-1537 c37 -127 78 -258 91 -289 l23 -58 -165 0 c-157 0 -164 1 -158 19 3 11
-4 48 -16 83 -28 81 -31 230 -6 339 16 69 20 77 42 77 13 0 41 13 62 30 21 17
43 31 48 32 6 0 41 -105 79 -233z m9583 -104 c-109 -2 -285 -2 -390 0 -106 1
-16 2 198 2 215 0 301 -1 192 -2z m-12607 -63 c0 -7 -295 -10 -865 -10 -570 0
-865 3 -865 10 0 7 295 10 865 10 570 0 865 -3 865 -10z m610 0 c0 -6 -50 -10
-130 -10 -80 0 -130 4 -130 10 0 6 50 10 130 10 80 0 130 -4 130 -10z m2115
-170 c4 -7 -213 -10 -644 -10 -427 0 -651 3 -651 10 0 7 221 10 644 10 419 0
647 -4 651 -10z m882 -117 c-10 -58 -27 -65 -27 -10 0 37 4 47 16 47 14 0 15
-7 11 -37z m10236 -20 c-182 -2 -484 -2 -670 0 -186 1 -36 2 332 2 369 0 521
-1 338 -2z m-10098 -140 c-11 -81 -16 -93 -46 -108 -15 -8 -30 -15 -32 -15 -2
0 1 32 7 71 10 65 14 72 41 84 17 7 32 14 34 14 2 1 0 -20 -4 -46z m7715 23
c0 -16 -38 -66 -51 -66 -14 0 -11 33 7 58 17 24 44 30 44 8z m-7827 -106 c-7
-49 -11 -55 -42 -67 l-34 -14 7 32 c3 17 6 42 6 55 0 18 9 28 33 38 17 7 33
12 35 11 1 -1 -1 -26 -5 -55z m7885 41 c-4 -18 -88 -30 -88 -12 0 6 5 11 11
11 5 0 8 3 5 8 -2 4 14 8 35 8 32 1 39 -2 37 -15z m-38 -41 c0 -5 -2 -10 -4
-10 -3 0 -8 5 -11 10 -3 6 -1 10 4 10 6 0 11 -4 11 -10z"/>
<path d="M15059 12041 c-40 -40 -49 -61 -26 -61 8 0 19 11 25 25 6 14 27 33
47 42 39 19 45 33 14 33 -12 0 -39 -17 -60 -39z"/>
<path d="M15188 11994 c-32 -17 -38 -54 -12 -75 13 -10 17 -10 25 2 5 8 7 25
4 37 -3 13 -1 30 6 38 14 17 11 17 -23 -2z"/>
<path d="M15165 11720 c17 -28 106 -53 140 -40 15 6 8 9 -25 9 -26 1 -59 9
-78 21 -36 22 -46 25 -37 10z"/>
<path d="M6276 12859 c-36 -28 -23 -43 17 -19 18 11 42 20 55 20 12 0 22 5 22
10 0 18 -67 11 -94 -11z"/>
<path d="M6644 12825 c51 -50 58 -53 49 -27 -10 29 -56 72 -76 72 -14 0 -8
-10 27 -45z"/>
<path d="M6334 12756 c-8 -22 -1 -59 13 -63 16 -6 35 34 28 57 -7 23 -33 27
-41 6z"/>
<path d="M6582 12728 c-17 -17 -15 -58 4 -65 20 -7 35 14 32 46 -3 28 -19 36
-36 19z"/>
<path d="M6260 12537 c0 -15 44 -59 77 -76 12 -6 32 -11 45 -10 17 0 11 5 -19
15 -23 9 -56 31 -73 50 -16 19 -30 29 -30 21z"/>
<path d="M12810 12521 c0 -13 9 -21 30 -26 17 -4 44 -18 61 -32 16 -14 33 -23
36 -20 11 12 -28 57 -67 77 -49 25 -60 25 -60 1z"/>
<path d="M12461 12493 c-35 -17 -71 -65 -71 -95 0 -28 23 -21 42 12 9 17 33
40 53 51 33 20 41 39 19 46 -5 1 -24 -5 -43 -14z"/>
<path d="M12830 12365 c-32 -38 5 -115 38 -81 25 25 12 96 -18 96 -4 0 -13 -7
-20 -15z"/>
<path d="M12509 12346 c-23 -49 13 -103 46 -70 19 20 19 58 -1 78 -21 22 -33
20 -45 -8z"/>
<path d="M12710 12229 c0 -48 -3 -100 -6 -117 -6 -27 -3 -32 19 -37 39 -10 97
12 97 37 0 26 -53 135 -85 173 l-25 30 0 -86z"/>
<path d="M12083 12257 c30 -39 44 -67 61 -119 5 -18 27 -16 53 5 20 14 35 83
27 122 l-6 35 -84 0 -84 0 33 -43z"/>
<path d="M12420 12072 c0 -15 44 -51 82 -67 40 -16 138 -21 138 -6 0 4 -28 11
-62 14 -47 4 -72 13 -105 36 -46 33 -53 36 -53 23z"/>
<path d="M2667 7487 c-50 -46 -135 -119 -188 -163 -212 -176 -325 -272 -342
-292 -13 -13 -17 -32 -15 -58 5 -61 24 -63 119 -16 164 81 389 153 389 124 0
-17 -41 -72 -50 -67 -14 9 -12 38 3 55 10 12 9 12 -5 1 -10 -7 -18 -24 -18
-37 0 -44 34 -42 63 4 15 25 16 25 17 5 0 -32 10 -53 26 -53 24 0 33 31 19 70
l-13 37 124 103 c71 59 124 110 124 120 0 19 -94 205 -118 233 -8 9 -21 17
-29 17 -7 0 -55 -37 -106 -83z m3 -99 c1 -7 5 -32 9 -55 7 -38 6 -43 -20 -62
l-28 -21 -7 56 c-5 45 -3 58 11 74 21 23 35 26 35 8z m-75 -139 c7 -53 6 -57
-22 -79 l-28 -22 -9 73 c-9 69 -8 73 14 91 29 24 35 15 45 -63z m85 -221 c0
-15 -4 -28 -9 -28 -12 0 -21 26 -21 63 1 30 1 31 15 13 8 -11 15 -32 15 -48z"/>
<path d="M10620 4266 c-22 -11 -160 -310 -160 -345 0 -10 8 -25 18 -34 15 -13
336 -113 735 -229 157 -45 192 -45 239 3 22 22 29 36 26 60 -3 27 -13 38 -68
71 -130 79 -221 166 -271 260 -8 16 -7 17 16 8 43 -17 90 -12 111 11 30 33 8
53 -67 60 -35 3 -59 6 -54 7 20 4 65 53 65 72 0 48 -109 26 -133 -27 -6 -13
-13 -23 -16 -23 -3 0 -99 26 -213 59 -168 47 -211 56 -228 47z m574 -45 c12
-18 -6 -39 -54 -65 -56 -31 -72 -21 -40 24 32 44 79 65 94 41z m65 -115 c19
-23 -24 -48 -69 -40 -43 8 -83 31 -75 44 10 16 131 12 144 -4z"/>
<path d="M13481 4109 c-11 -12 -25 -37 -32 -56 l-11 -33 -228 0 c-170 0 -230
-3 -237 -12 -10 -13 -54 -286 -56 -346 -2 -66 -19 -63 495 -64 432 -1 467 0
496 17 16 10 35 29 41 42 15 32 14 78 -1 90 -7 6 -56 22 -108 37 -121 34 -206
75 -267 130 l-48 44 43 0 c55 1 92 24 92 57 0 33 -31 40 -91 22 l-47 -14 25
35 c30 46 27 66 -14 70 -22 2 -37 -3 -52 -19z m69 -9 c0 -27 -77 -107 -91 -93
-12 12 9 69 35 96 24 24 56 22 56 -3z m98 -87 c-7 -35 -109 -58 -148 -33 -18
11 -15 14 40 33 63 22 112 22 108 0z"/>
</g>
</svg>
